<svg data-v-0dd9719b="" version="1.0" xmlns="http://www.w3.org/2000/svg" xmlns:xlink="http://www.w3.org/1999/xlink" width="100%" height="100%" viewBox="0 0 340.000000 250.000000" preserveAspectRatio="xMidYMid meet" color-interpolation-filters="sRGB" style="margin: auto;"> <rect data-v-0dd9719b="" x="0" y="0" width="100%" height="100%" fill="#fff" fill-opacity="1" class="background"></rect> <rect data-v-0dd9719b="" x="0" y="0" width="100%" height="100%" fill="url(#watermark)" fill-opacity="1" class="watermarklayer"></rect> <g data-v-0dd9719b="" fill="#333" class="icon-text-wrapper icon-svg-group iconsvg" transform="translate(48.974998474121094,96.8237476348877)"><g class="iconsvg-imagesvg" transform="translate(0,2.1954784393310547)"><g><rect fill="#333" fill-opacity="0" stroke-width="2" x="0" y="0" width="60" height="51.96154845414393" class="image-rect"></rect> <svg x="0" y="0" width="60" height="51.96154845414393" filtersec="colorsb5877653056" class="image-svg-svg primary" style="overflow: visible;"><svg xmlns="http://www.w3.org/2000/svg" viewBox="0 0 115.4699935913086 100"><g fill-rule="evenodd"><path d="M88.47 31.82a5.89 5.89 0 0 0 .45-2.27 6 6 0 1 0-6.37 5.94L98.83 63.7l-21 36.3h8.77l20.62-35.71zM28 43.46a6 6 0 0 0 5.31-8.66L49.05 7.56H91L86.6 0H45.37L27.12 31.61A6 6 0 0 0 28 43.46zM62.76 76.19a6 6 0 0 0-4.88 2.55H25.32l-21-36.3L0 50l20.62 35.71H58a6 6 0 1 0 4.77-9.52z" fill="#00a2e9"></path><path d="M94.85 14.29h-37a6 6 0 1 0 0 7h32.3l21 36.3 4.32-7.59zM87.18 56.23a6 6 0 0 0-5.08 9.06L66.42 92.44H24.5l4.37 7.56H70.1l18.49-32a6 6 0 0 0-1.41-11.75zM25.66 69.75a6 6 0 1 0 6.89-5.88L16.64 36.3 37.6 0h-8.73L8.25 35.71 26.32 67a6 6 0 0 0-.66 2.75z" fill="#096594"></path></g></svg></svg> <!----></g></g> <g transform="translate(67,0)"><g data-gra="path-name" fill-rule="" class="tp-name iconsvg-namesvg" transform="translate(0,0)"><g transform="scale(1)"><g><path d="M23.76-36.27L23.76-32.35 14.94-32.35 14.94-22.68 20.65-22.68 20.65-26.95 23.76-26.95C23.63-15.21 21.29-6.03 13.9 4.5L21.42 4.5C27.18-5.76 29.56-15.48 29.7-26.95L37.03-26.95 37.03-22.68 42.75-22.68 42.75-32.35 29.7-32.35 29.7-36.27ZM1.84 4.5C4.46-1.93 6.17-8.32 6.97-14.67L13-14.67C12.06-7.2 10.53-0.81 8.41 4.5ZM2.25-19.3L2.25-25.43 13-22.77 13-16.74ZM3.15-29.88L3.15-36 12.91-33.48 12.91-27.36ZM30.6 4.23L43.65 4.23 43.65-1.35 36.49-1.35 36.49-19.26 30.6-19.26ZM86.63-35.1L65.3-35.1 65.3 3.6 86.63 3.6ZM48.06 4.5L53.73 4.5 53.73-29.79 57.28-29.79C56.84-25.74 55.94-22.09 54.54-18.22 56.48-15.16 57.42-12.33 57.42-9.22 57.42-6.17 56.48-3.33 54.54-0.27L60.7-0.27C62.14-3.06 62.95-6.12 62.95-9.22 62.95-12.38 62.1-15.39 60.48-18.22 62.33-23.8 63.18-28.93 63.18-35.55L48.06-35.55ZM71.06-2.29L71.06-13.05 80.87-13.05 80.87-2.29ZM71.06-18.9L71.06-29.2 80.87-29.2 80.87-18.9ZM91.89-9.45L133.11-9.45 133.11-15.21 124.29-15.21 124.29-26.1 131.72-26.1 131.72-31.86 124.29-31.86 124.29-36.54 118.48-36.54 118.48-31.86 106.52-31.86 106.52-36.54 100.71-36.54 100.71-31.86 93.28-31.86 93.28-26.1 100.71-26.1 100.71-15.21 91.89-15.21ZM92.25 4.86C98.1 3.19 103.77 1.26 109.26-1.21L109.26-7.38C103.59-4.95 97.88-2.79 92.25-1.17ZM106.52-15.21L106.52-26.1 118.48-26.1 118.48-15.21ZM115.74-1.21C121.23 1.26 126.9 3.19 132.75 4.86L132.75-1.17C127.13-2.79 121.41-4.95 115.74-7.38ZM138.1-34.96L138.1 4.5 143.87 4.5 143.87-29.2 171.13-29.2 171.13 4.5 176.89 4.5 176.89-34.96ZM146.16-20.65L168.84-20.65 168.84-26.23 146.16-26.23ZM147.42 0.49L167.58 0.49 167.58-17.82 147.42-17.82ZM153.09-5.22L153.09-12.15 161.91-12.15 161.91-5.22Z" transform="translate(-1.840000033378601, 36.540000915527344)"></path></g> <!----> <!----> <!----> <!----> <!----> <!----> <!----></g></g> <g data-gra="path-slogan" fill-rule="" class="tp-slogan iconsvg-slogansvg" fill="#333" transform="translate(4.999992370605469,47.400001525878906)"><rect x="0" height="1" y="3.9750003814697266" width="27.39917755126953"></rect> <rect height="1" y="3.9750003814697266" width="27.39917755126953" x="137.65082550048828"></rect> <g transform="translate(30.39917755126953,0)"><g transform="scale(1)"><path d="M7.17-6.09L7.17-6.09L6.09-6.09Q6-7.73 3.94-7.83L3.94-7.83Q2.02-7.78 2.02-6.33L2.02-6.33Q2.02-5.39 3.05-5.25L3.05-5.25L5.48-4.69Q7.41-4.22 7.41-2.34L7.41-2.34Q7.36 0.05 4.03 0.14L4.03 0.14Q2.20 0.14 1.45-0.61L1.45-0.61Q0.52-1.31 0.56-2.77L0.56-2.77L1.69-2.77Q1.73-0.80 4.03-0.75L4.03-0.75Q6.28-0.80 6.33-2.20L6.33-2.20Q6.52-3.38 4.45-3.75L4.45-3.75L2.67-4.13Q0.84-4.64 0.84-6.19L0.84-6.19Q0.98-8.72 3.84-8.81L3.84-8.81Q7.08-8.81 7.17-6.09ZM10.03-5.06L14.53-5.06L14.53-8.58L15.70-8.58L15.70 0L14.53 0L14.53-3.98L10.03-3.98L10.03 0L8.86 0L8.86-8.58L10.03-8.58L10.03-5.06ZM18.80-1.03L23.95-1.03L23.95 0L17.63 0L17.63-8.58L23.86-8.58L23.86-7.59L18.80-7.59L18.80-4.92L23.48-4.92L23.48-3.89L18.80-3.89L18.80-1.03ZM26.86-8.58L31.17-1.64L31.17-8.58L32.30-8.58L32.30 0L30.98 0L26.63-6.94L26.58-6.94L26.58 0L25.45 0L25.45-8.58L26.86-8.58ZM41.02-8.58L37.78-3.47L37.78 0L36.61 0L36.61-3.47L33.38-8.58L34.73-8.58L37.17-4.45L39.66-8.58L41.02-8.58ZM47.72 0L46.88-2.48L43.41-2.48L42.52 0L41.34 0L44.58-8.58L45.89-8.58L48.98 0L47.72 0ZM45.14-7.31L43.78-3.52L46.45-3.52L45.19-7.31L45.14-7.31ZM51.42-8.58L55.73-1.64L55.73-8.58L56.86-8.58L56.86 0L55.55 0L51.19-6.94L51.14-6.94L51.14 0L50.02 0L50.02-8.58L51.42-8.58ZM65.06-3.61L62.44-3.61L62.44-4.59L66.19-4.59L66.19 0L65.44 0L65.16-1.08Q64.17 0.09 62.34 0.14L62.34 0.14Q60.61 0.14 59.67-0.75L59.67-0.75Q58.27-2.06 58.31-4.36L58.31-4.36Q58.64-8.63 62.39-8.81L62.39-8.81Q65.58-8.63 66.05-6L66.05-6L64.92-6Q64.45-7.78 62.34-7.83L62.34-7.83Q59.67-7.64 59.53-4.31L59.53-4.31Q59.53-0.75 62.39-0.75L62.39-0.75Q63.42-0.75 64.17-1.31L64.17-1.31Q65.11-2.06 65.06-3.61L65.06-3.61ZM70.59-1.92L70.59-2.77L71.67-2.77L71.67-2.16Q71.67-0.75 72.98-0.75L72.98-0.75Q74.34-0.75 74.34-2.25L74.34-2.25L74.34-8.58L75.52-8.58L75.52-2.30Q75.47 0.09 73.03 0.14L73.03 0.14Q70.73 0.09 70.59-1.92L70.59-1.92ZM84.09-4.27L84.09-4.27Q83.91-7.64 81.09-7.83L81.09-7.83Q78.23-7.69 78.09-4.27L78.09-4.27Q78.23-0.94 81.09-0.80L81.09-0.80Q83.91-0.98 84.09-4.27ZM85.27-4.27L85.27-4.27Q84.98 0 81.09 0.14L81.09 0.14Q77.16 0 76.88-4.27L76.88-4.27Q77.11-8.72 81.09-8.81L81.09-8.81Q84.98-8.67 85.27-4.27ZM86.81-8.58L87.98-8.58L87.98 0L86.81 0L86.81-8.58ZM91.36-8.58L95.67-1.64L95.67-8.58L96.80-8.58L96.80 0L95.48 0L91.13-6.94L91.08-6.94L91.08 0L89.95 0L89.95-8.58L91.36-8.58ZM100.78-7.59L97.88-7.59L97.88-8.58L104.81-8.58L104.81-7.59L101.91-7.59L101.91 0L100.78 0L100.78-7.59Z" transform="translate(-0.5602678571428572, 8.8125)"></path></g></g></g></g></g><defs v-gra="od"></defs></svg>